<svg xmlns="http://www.w3.org/2000/svg" width="80" height="80" fill="none" viewBox="0 0 80 80">
  <path fill="url(#a)" d="M40 0h40v5.063H40V0Z"/>
  <path fill="#E8341D" fill-rule="evenodd" d="M39.91 80c22.043 0 39.911-17.909 39.911-40S61.953 0 39.911 0C17.869 0 0 17.909 0 40s17.869 40 39.91 40Zm0-5.063c19.253 0 34.86-15.642 34.86-34.937 0-19.295-15.607-34.937-34.86-34.937C20.66 5.063 5.053 20.705 5.053 40c0 19.295 15.607 34.937 34.859 34.937Z" clip-rule="evenodd"/>
  <path fill="url(#b)" d="M40 74.937 0 73.924V80h40v-5.063Z"/>
  <path fill="#fff" fill-rule="evenodd" d="m26.061 26.127 1.128 3.045s-.352 2.99 0 5.979c.334 2.835 1.037 5.058 1.716 7.204.145.458.288.913.427 1.369 2.595 4.569 4.287 6.317 4.287 6.317l1.466 7.276 2.37 3.271v1.015h-1.129v1.129h-1.24v4.455h10.828v-4.455h-1.24v-1.129h-1.128v-1.015l2.368-3.271 1.467-7.276s1.692-1.748 4.286-6.317c.14-.456.283-.91.428-1.369.68-2.146 1.382-4.369 1.716-7.204.352-2.99 0-5.979 0-5.979l1.128-3.046-5.415-2.03-2.143 1.692.79-3.102-7.671-9.814-7.67 9.814.789 3.102-2.143-1.692-5.415 2.03Zm-.395 4.06v2.37s-1.805 1.297-1.635 3.44c0 2.538 1.635 4.343 1.635 4.343v-2.256h1.805l.564 2.03h-.226v.226c-.125.283.98 3.944 1.749 5.584 1.24 1.917 3.497 4.117 3.497 4.117v2.087s-2.935-1.41-4.343-3.61c-.902-1.41-1.466-2.876-2.143-4.794-2.901-1.79-4.584-4.221-4.569-7.727.006-1.539.15-2.355.902-3.836.621-.958 2.764-1.974 2.764-1.974Zm29.668 2.37v-2.37s2.143 1.016 2.763 1.974c.754 1.481.896 2.297.903 3.836.014 3.505-1.668 5.938-4.569 7.727-.677 1.918-1.24 3.384-2.143 4.794-1.408 2.2-4.343 3.61-4.343 3.61V50.04s2.256-2.2 3.497-4.117c.768-1.64 1.873-5.3 1.748-5.584v-.226h-.225l.564-2.03h1.805v2.256s1.635-1.805 1.635-4.343c.17-2.143-1.635-3.44-1.635-3.44Zm-7.242 6.603-2.031 1.809-.006 1.77 1.019-.885 1.018-2.694Zm.873-2.71.841-2.547-5.911 5.263v1.7l5.07-4.416Zm1.793-5.409.842-2.547-9.877 8.793v1.688l9.035-7.934Zm-6.71 18.009-11.11-9.884 1.043 2.715 1.306 1.14-.665.592.525 1.217 1.104-.972 1.202 1.059-1.641 1.45.524 1.206 2.068-1.82 1.142 1.005-2.575 2.292h1.995l1.592-1.407 1.592 1.407h1.898Zm2.366-5.426L29.4 28.494l.842 2.547 9.285 8.2v1.69l.964-.847 1.245 1.097v1.607l.927-.793 1.269 1.119v1.537l.878-.771 1.08.95.524-1.206Zm-1.244 2.797L31.23 33.985l.842 2.547 5.283 4.649v1.678l.952-.837 1.22 1.07v1.651l.952-.826 1.269 1.12v1.553l.89-.772 2.007 1.809.525-1.206Z" clip-rule="evenodd"/>
  <defs>
    <linearGradient id="a" x1="0" x2="80" y1="40" y2="40" gradientUnits="userSpaceOnUse">
      <stop stop-color="#E8341D"/>
      <stop offset="1" stop-color="#C31700"/>
    </linearGradient>
    <linearGradient id="b" x1="40" x2="0" y1="74.899" y2="74.899" gradientUnits="userSpaceOnUse">
      <stop stop-color="#E8341D"/>
      <stop offset="1" stop-color="#C41700"/>
    </linearGradient>
  </defs>
</svg>
