<svg xmlns="http://www.w3.org/2000/svg" width="101" height="100" fill="none" viewBox="0 0 101 100">
  <path fill="url(#a)" d="M50.588 11h39.589v5H50.588v-5Z"/>
  <path fill="#E8341D" fill-rule="evenodd" d="M50.5 90C72.315 90 90 72.315 90 50.5S72.315 11 50.5 11 11 28.685 11 50.5 28.685 90 50.5 90Zm0-5C69.554 85 85 69.554 85 50.5 85 31.446 69.554 16 50.5 16 31.446 16 16 31.446 16 50.5 16 69.554 31.446 85 50.5 85Z" clip-rule="evenodd"/>
  <path fill="url(#b)" d="M50.588 85 11 84v6h39.588v-5Z"/>
  <path fill="#fff" fill-rule="evenodd" d="m36.813 36.446 1.06 2.86s-.33 2.806 0 5.613c.313 2.662.973 4.749 1.61 6.764.136.43.271.858.402 1.286 2.436 4.29 4.025 5.931 4.025 5.931l1.377 6.832 2.224 3.072v.953h-1.06v1.06h-1.164V75h10.168v-4.184H54.29v-1.059h-1.06v-.953l2.225-3.072 1.377-6.832s1.588-1.641 4.025-5.931c.13-.429.265-.856.401-1.286.638-2.015 1.298-4.102 1.611-6.764.33-2.807 0-5.614 0-5.614l1.06-2.86-5.085-1.906-2.012 1.589.741-2.913L50.371 24l-7.203 9.215.742 2.913-2.013-1.59-5.084 1.908Zm-.37 3.813v2.224s-1.695 1.218-1.536 3.23c0 2.384 1.536 4.078 1.536 4.078v-2.118h1.694l.53 1.906h-.212v.212c-.117.266.92 3.704 1.642 5.243 1.165 1.8 3.283 3.866 3.283 3.866v1.96s-2.756-1.324-4.078-3.39c-.847-1.324-1.377-2.7-2.012-4.501-2.724-1.68-4.304-3.964-4.29-7.256.006-1.444.14-2.21.847-3.6.583-.901 2.596-1.854 2.596-1.854Zm27.856 2.224v-2.224s2.012.953 2.595 1.853c.707 1.39.841 2.157.847 3.601.014 3.292-1.565 5.576-4.29 7.256-.635 1.8-1.165 3.177-2.012 4.501-1.322 2.066-4.078 3.39-4.078 3.39V58.9s2.119-2.065 3.284-3.866c.721-1.54 1.759-4.977 1.641-5.243v-.212h-.211l.53-1.906h1.694v2.118s1.536-1.694 1.536-4.078c.159-2.012-1.536-3.23-1.536-3.23Zm-7.361 1.91a1.14 1.14 0 1 0 0-2.28 1.14 1.14 0 0 0 0 2.28Zm3.707 1.426a1.14 1.14 0 1 1-2.282 0 1.14 1.14 0 0 1 2.282 0Zm-2.567 2.567a1.14 1.14 0 1 1-2.281 0 1.14 1.14 0 0 1 2.281 0Zm-2.566-2.567a1.14 1.14 0 1 1-2.282 0 1.14 1.14 0 0 1 2.282 0Zm-12.017-1.423c-.038.08-.309.328-.618.568-.309-.24-.58-.487-.619-.568-.076-.162-.183-1.033-.163-1.333.01-.158.273-.238.783-.238.507 0 .77.08.78.239.02.298-.086 1.17-.163 1.332Zm-3.082.425c.373 0 1.112.107 1.255.18.073.038.297.295.567.676-.27.38-.495.637-.567.675-.143.074-.882.18-1.255.18-.03 0-.056 0-.078-.002-.158-.012-.238-.298-.239-.855 0-.553.081-.84.24-.851a.852.852 0 0 1 .077-.003Zm1.845 2.121c.035-.07.27-.29.619-.552.308.233.58.474.618.552.077.157.184 1.005.164 1.297-.011.154-.274.231-.78.232v.2l-.003-.2c-.508 0-.77-.078-.78-.232-.021-.291.085-1.14.162-1.297Zm3.174-2.117c-.287-.025-1.097.097-1.242.177-.067.038-.277.295-.529.675.202.306.446.629.529.675.133.074.821.18 1.169.18.027 0 .052 0 .072-.002.147-.012.222-.298.222-.851 0-.015.002-.031.004-.045-.004-.512-.078-.798-.225-.81Z" clip-rule="evenodd"/>
  <defs>
    <linearGradient id="a" x1="11" x2="90.177" y1="50.5" y2="50.5" gradientUnits="userSpaceOnUse">
      <stop stop-color="#E8341D"/>
      <stop offset="1" stop-color="#C31700"/>
    </linearGradient>
    <linearGradient id="b" x1="50.588" x2="11" y1="84.963" y2="84.963" gradientUnits="userSpaceOnUse">
      <stop stop-color="#E8341D"/>
      <stop offset="1" stop-color="#C41700"/>
    </linearGradient>
  </defs>
</svg>
